<svg xmlns="http://www.w3.org/2000/svg" viewBox="0 0 337.65 52.9" height="26" width="169">
  <title>Untitled-2</title>
  <rect y="2.07" width="14.22" height="49.94" fill="red"/>
  <path d="M48,13.19h-.59c-10.29,0-15.41,9-15.41,15.16V14.08H18.82V52H32.15V32.75c0-4.67,3.19-9,9.56-9,6.6,0,8.85,4.8,8.85,9.17,0,10.8-6.31,19.13-6.31,19.13h12s9.07-7.3,9.07-23.13C65.31,20.79,59.12,13.19,48,13.19Z" fill="red"/>
  <rect x="202.5" y="14.08" width="13.34" height="37.93" fill="red"/>
  <rect x="202.5" y="2.07" width="13.34" height="7.85" fill="red"/>
  <path d="M255,2.07v26.3a14.92,14.92,0,0,0-15-15c-15.51,0-20.16,10.37-20.16,18.89v1.41c0,8.22,4.08,19.11,20.23,19.11a14.84,14.84,0,0,0,15-14.33V52h12.81V2.07Zm-.15,31c0,4.23-2.37,9.56-10.3,9.56h-.74c-8.37,0-10.23-5.56-10.23-9.63v-.15c0-4.07,1.71-9.56,10.23-9.56h.66c7.64,0,10.38,5.26,10.38,9.56Z" fill="red"/>
  <path d="M100.79,19.86l-7.63-.3c-8.07-.3-9.55-2.52-9.55-5s1.85-4.44,11.33-4.44h.67c10,0,11.33,3.33,11.7,5.56h15.12V15c0-6.82-3-15-25.86-15H94.2C72.57,0,68.57,7.78,68.57,15.19v.59c0,7.78,5.33,14.52,22.37,15L98.2,31c8.45.22,10.15,2.37,10.15,5.26s-1.41,6.15-12.15,6.15h-.52c-11,0-11.93-5.11-12.15-7.41H68.12v.82c0,6.22,2.82,17,26.89,17h2c23.11,0,26.52-9.78,26.52-17.34v-.81C123.54,26.37,119,20.6,100.79,19.86Z" fill="red"/>
  <path d="M186.29,13.26h-.37c-9.45,0-12.37,10.65-12.37,14V14.08H160.36V52h13.33V31.86c0-4.89,2.3-8.15,6.3-8.15,5,0,7.64,3.77,5.41,9.47L196.31,33C202.64,25.12,198.82,13.26,186.29,13.26Z" fill="red"/>
  <path d="M320.25,34.67c0-10.59-3.56-21.41-23-21.41h-3c-18,0-22.22,10.74-22.22,19.34v1c0,9.11,4.67,19.34,23.41,19.34h2.44c19.64,0,22.16-9.63,22.16-12.52H306.17c-.22.59-1.26,3.41-9,3.41-8.15,0-10.82-3.49-11.41-7.86h34.53Zm-34.46-5.92c.82-3.93,3.19-6.82,10.23-6.82,8.52,0,9.85,3.93,9.93,6.82Z" fill="red"/>
  <path d="M147.24,2.51H134V14.07H125.9V23.7H134V42.08c0,6.82,4,9.93,9.93,9.93h12V41.86h-5c-2.74,0-3.71-1.11-3.71-3.93V23.7h8.67V14.07h-8.67Z" fill="red"/>
  <polygon points="322.67 16.61 325.04 16.61 325.04 23.55 326.19 23.55 326.19 16.61 328.57 16.61 328.57 15.62 322.67 15.62 322.67 16.61" fill="red"/>
  <polygon points="336.54 15.62 333.65 22.34 330.75 15.62 329.64 15.62 329.64 23.55 330.67 23.55 330.67 17.78 333.07 23.55 334.22 23.55 336.62 17.78 336.62 23.55 337.65 23.55 337.65 15.62 336.54 15.62" fill="red"/>
</svg>
